<mxfile host="65bd71144e">
    <diagram id="zQgq3WBIan0EQruBycjX" name="Page-1">
        <mxGraphModel dx="1194" dy="833" grid="1" gridSize="10" guides="1" tooltips="1" connect="1" arrows="1" fold="1" page="1" pageScale="1" pageWidth="850" pageHeight="1100" math="0" shadow="0">
            <root>
                <mxCell id="0"/>
                <mxCell id="1" parent="0"/>
                <mxCell id="8" value="&lt;h2&gt;Flex box Main - Column&lt;/h2&gt;" style="shape=internalStorage;whiteSpace=wrap;html=1;backgroundOutline=1;dx=0;dy=0;align=left;verticalAlign=top;fillColor=#d80073;fontColor=#ffffff;strokeColor=#A50040;spacing=0;" parent="1" vertex="1">
                    <mxGeometry x="30" y="300" width="800" height="700" as="geometry"/>
                </mxCell>
                <mxCell id="36" value="Flexbox About Me - Row" style="rounded=0;whiteSpace=wrap;html=1;fillColor=#a0522d;fontColor=#ffffff;strokeColor=#6D1F00;align=left;verticalAlign=top;" parent="1" vertex="1">
                    <mxGeometry x="50" y="340" width="770" height="140" as="geometry"/>
                </mxCell>
                <mxCell id="23" value="Flexbox Work - Row" style="rounded=0;whiteSpace=wrap;html=1;fillColor=#a0522d;fontColor=#ffffff;strokeColor=#6D1F00;align=left;verticalAlign=top;" parent="1" vertex="1">
                    <mxGeometry x="50" y="490" width="770" height="491" as="geometry"/>
                </mxCell>
                <mxCell id="2" value="&lt;h1&gt;Uwlryoung Portfolio&lt;/h1&gt;" style="rounded=0;whiteSpace=wrap;html=1;align=left;" parent="1" vertex="1">
                    <mxGeometry width="850" height="100" as="geometry"/>
                </mxCell>
                <mxCell id="4" value="Nav - Projects" style="rounded=0;whiteSpace=wrap;html=1;" parent="1" vertex="1">
                    <mxGeometry x="460" y="50" width="370" height="30" as="geometry"/>
                </mxCell>
                <mxCell id="6" value="&lt;h2&gt;&lt;font style=&quot;font-size: 21px;&quot;&gt;Contact Me:&amp;nbsp;&lt;/font&gt;&lt;/h2&gt;" style="rounded=0;whiteSpace=wrap;html=1;align=left;" parent="1" vertex="1">
                    <mxGeometry y="1020" width="850" height="80" as="geometry"/>
                </mxCell>
                <mxCell id="7" value="&lt;font style=&quot;font-size: 16px;&quot;&gt;Figure with an caption, a hero pic! (automatic slide show?)&lt;/font&gt;" style="rounded=0;whiteSpace=wrap;html=1;" parent="1" vertex="1">
                    <mxGeometry y="119" width="850" height="150" as="geometry"/>
                </mxCell>
                <mxCell id="39" value="Flexbox Featured Work - WRAP&amp;nbsp;" style="rounded=0;whiteSpace=wrap;html=1;labelBackgroundColor=#FF3333;fontSize=15;fillColor=#fad7ac;strokeColor=#b46504;align=left;verticalAlign=top;" parent="1" vertex="1">
                    <mxGeometry x="318" y="510" width="492" height="460" as="geometry"/>
                </mxCell>
                <mxCell id="13" value="Project 1 Caption + Figure" style="rounded=0;whiteSpace=wrap;html=1;fontSize=21;verticalAlign=top;align=left;fillColor=#1ba1e2;fontColor=#ffffff;strokeColor=#006EAF;" parent="1" vertex="1">
                    <mxGeometry x="330" y="550" width="440" height="141" as="geometry"/>
                </mxCell>
                <mxCell id="40" value="" style="rounded=0;whiteSpace=wrap;html=1;fillColor=#1ba1e2;fontColor=#ffffff;strokeColor=#006EAF;" vertex="1" parent="1">
                    <mxGeometry x="330" y="705.5" width="440" height="124.5" as="geometry"/>
                </mxCell>
                <mxCell id="15" value="Project 3 Caption + Figure" style="rounded=0;whiteSpace=wrap;html=1;fontSize=21;align=left;verticalAlign=top;" parent="1" vertex="1">
                    <mxGeometry x="560" y="720" width="200" height="96" as="geometry"/>
                </mxCell>
                <mxCell id="16" value="Project 2 Caption + Figure" style="rounded=0;whiteSpace=wrap;html=1;fontSize=21;align=left;verticalAlign=top;" parent="1" vertex="1">
                    <mxGeometry x="340" y="720" width="190" height="96" as="geometry"/>
                </mxCell>
                <mxCell id="41" value="" style="rounded=0;whiteSpace=wrap;html=1;fillColor=#1ba1e2;fontColor=#ffffff;strokeColor=#006EAF;" vertex="1" parent="1">
                    <mxGeometry x="330" y="836.5" width="440" height="124.5" as="geometry"/>
                </mxCell>
                <mxCell id="18" value="Project 4 Caption + figure" style="rounded=0;whiteSpace=wrap;html=1;fontSize=21;verticalAlign=top;" parent="1" vertex="1">
                    <mxGeometry x="340" y="847" width="190" height="95" as="geometry"/>
                </mxCell>
                <mxCell id="19" value="Project 5 Caption + Figure" style="rounded=0;whiteSpace=wrap;html=1;fontSize=21;verticalAlign=top;" parent="1" vertex="1">
                    <mxGeometry x="560" y="849" width="200" height="93" as="geometry"/>
                </mxCell>
                <mxCell id="21" value="&amp;nbsp;About Me" style="rounded=0;whiteSpace=wrap;html=1;fontSize=21;align=right;" parent="1" vertex="1">
                    <mxGeometry x="66" y="361" width="230" height="109" as="geometry"/>
                </mxCell>
                <mxCell id="22" value="Text about me." style="rounded=0;whiteSpace=wrap;html=1;fontSize=21;" parent="1" vertex="1">
                    <mxGeometry x="310" y="360" width="490" height="111" as="geometry"/>
                </mxCell>
                <mxCell id="26" value="Work" style="rounded=0;whiteSpace=wrap;html=1;fontSize=21;align=right;verticalAlign=top;" parent="1" vertex="1">
                    <mxGeometry x="66" y="510" width="230" height="451" as="geometry"/>
                </mxCell>
                <mxCell id="20" value="Profile Pic" style="ellipse;whiteSpace=wrap;html=1;fontSize=21;" parent="1" vertex="1">
                    <mxGeometry x="318" y="370" width="90" height="89" as="geometry"/>
                </mxCell>
            </root>
        </mxGraphModel>
    </diagram>
</mxfile>